<?xml version="1.0" standalone="no"?>
<!DOCTYPE svg PUBLIC "-//W3C//DTD SVG 20010904//EN"
 "http://www.w3.org/TR/2001/REC-SVG-20010904/DTD/svg10.dtd">
<svg version="1.0" xmlns="http://www.w3.org/2000/svg"
 width="1080.000000pt" height="1080.000000pt" viewBox="0 0 1080.000000 1080.000000"
 preserveAspectRatio="xMidYMid meet">

<style>
  .logo-path {
    fill: #29363e;
    fill: var(--logo-color, #29363e);
  }
  
  /* Dark mode support via CSS variable (set by parent .dark class) */
  /* Also support system preference as fallback */
  @media (prefers-color-scheme: dark) {
    .logo-path {
      fill: var(--logo-color, #ffffff);
    }
  }
</style>

<g transform="translate(0.000000,1080.000000) scale(0.100000,-0.100000)"
class="logo-path" stroke="none">
<path class="logo-path" d="M5550 9950 c-636 -60 -1186 -234 -1687 -536 -163 -98 -258 -162 -518
-348 -517 -370 -918 -688 -1210 -961 -79 -73 -75 -73 90 5 61 29 146 65 189
81 l79 30 -75 -83 c-508 -562 -1224 -1638 -1698 -2553 -46 -88 -102 -197 -126
-241 -80 -154 -254 -522 -375 -794 l-77 -175 306 -6 c405 -9 635 -40 1030
-139 1214 -304 2541 -1108 3691 -2235 452 -444 914 -988 1221 -1443 45 -67 86
-122 90 -122 4 0 24 62 44 138 87 329 137 624 178 1047 20 204 17 1012 -4
1245 -10 102 -20 230 -23 285 l-5 100 65 -130 c35 -71 92 -200 125 -285 82
-209 79 -201 79 -170 0 14 -6 102 -14 195 -21 234 -20 702 0 882 59 510 222
981 476 1373 33 51 58 94 56 96 -6 6 -241 -131 -342 -199 -248 -166 -467 -349
-754 -632 -113 -110 -198 -189 -189 -175 8 14 37 61 63 104 205 338 518 686
875 970 238 190 598 430 869 580 81 45 107 49 52 9 -72 -54 -350 -401 -426
-533 -8 -13 -7 -13 10 0 114 88 455 392 607 540 154 150 349 383 334 398 -13
13 -188 31 -304 31 -108 1 -269 -17 -342 -39 -66 -19 -63 -10 26 83 109 112
144 163 151 216 5 35 2 44 -24 70 -16 16 -50 35 -74 41 -49 14 -194 9 -349
-10 -109 -14 -252 -8 -293 11 -16 7 -35 26 -43 42 -22 42 -4 86 60 144 65 60
124 91 348 187 240 102 331 149 385 199 125 115 239 343 309 620 14 55 31 112
39 126 7 15 41 42 74 61 209 119 300 199 354 311 17 37 37 68 43 68 19 1 312
-99 380 -129 l64 -29 0 47 c-1 159 -112 384 -264 534 -184 182 -447 354 -831
543 -602 297 -1167 464 -1835 541 -158 19 -733 27 -880 14z m385 -1105 c203
-20 378 -47 585 -91 147 -32 258 -62 746 -204 254 -74 360 -93 544 -94 193 -1
263 14 330 72 40 34 80 97 80 127 0 31 18 13 29 -29 15 -62 14 -126 -4 -177
-40 -112 -143 -154 -375 -152 -260 2 -520 54 -945 188 -622 196 -1072 261
-1948 282 -153 3 -274 9 -270 13 10 10 263 48 428 64 184 19 606 19 800 1z
m505 -339 l45 -13 -40 -21 c-198 -101 -265 -403 -139 -629 68 -123 180 -200
348 -243 94 -24 156 -25 251 -5 273 58 453 284 431 543 -3 40 -2 72 3 72 17 0
170 -151 198 -195 15 -25 31 -45 35 -45 4 0 42 23 84 50 79 51 109 63 82 33
-8 -10 -64 -90 -123 -178 -180 -267 -232 -325 -339 -379 -87 -43 -158 -56
-311 -56 -285 0 -579 79 -770 206 -131 86 -262 230 -372 409 -33 55 -72 110
-85 121 -41 39 -263 142 -337 159 -17 4 -34 11 -37 17 -17 27 444 -40 509 -74
9 -5 38 -50 63 -101 43 -86 129 -227 137 -227 3 0 -2 28 -10 63 -10 41 -13 93
-10 153 3 79 8 99 38 154 20 37 65 96 107 138 l73 75 62 -7 c34 -3 82 -12 107
-20z m195 -115 c22 -10 57 -37 78 -59 49 -55 51 -99 6 -136 -28 -24 -39 -26
-117 -26 -48 0 -124 3 -169 7 -82 6 -83 6 -83 33 0 63 65 160 125 186 43 19
113 17 160 -5z m-2866 -828 c-95 -98 -173 -192 -302 -365 -235 -316 -391 -553
-488 -742 l-51 -99 78 7 c165 14 378 26 382 22 2 -3 -10 -25 -28 -50 -103
-151 -253 -506 -305 -722 -34 -144 -36 -154 -31 -154 2 0 38 16 79 35 111 50
355 131 365 120 2 -2 -18 -56 -43 -121 -58 -146 -91 -290 -106 -454 -10 -117
-5 -313 10 -404 l6 -38 69 87 c75 94 223 248 271 282 l30 21 0 -267 c0 -287
14 -431 60 -640 19 -89 69 -256 80 -269 2 -2 196 232 222 267 8 11 13 -15 33
-149 25 -168 57 -324 106 -501 19 -69 34 -129 34 -133 0 -4 -44 29 -97 72
-478 386 -1050 735 -1583 967 -36 16 -69 32 -74 36 -9 8 66 111 202 277 46 57
83 105 81 107 -13 12 -498 37 -669 34 -110 -2 -200 -3 -200 -1 0 9 91 159 153
252 185 276 326 448 574 701 l183 186 -112 36 c-62 20 -171 53 -243 73 -71 20
-132 39 -135 41 -15 14 169 310 307 493 151 201 250 316 432 502 102 105 158
169 150 172 -8 3 -72 12 -144 21 -198 25 -192 22 -106 61 132 61 363 150 521
203 141 46 321 98 345 100 5 1 -20 -29 -56 -66z"/>
<path class="logo-path" d="M9614 8051 c-58 -35 -113 -113 -196 -277 -106 -210 -178 -308 -299
-409 -223 -184 -577 -390 -724 -420 -39 -8 -178 -19 -310 -25 -202 -8 -255
-13 -338 -34 -101 -26 -186 -61 -222 -90 -19 -16 -15 -17 65 -11 47 3 123 11
170 18 122 16 536 15 630 -2 140 -26 290 -94 416 -190 86 -65 181 -157 172
-166 -3 -4 -91 -11 -194 -16 -104 -6 -236 -13 -294 -16 l-105 -6 45 -14 c155
-48 433 -107 675 -144 175 -27 477 -33 580 -11 154 33 355 85 355 93 0 4 -22
34 -49 67 -131 157 -246 215 -564 287 -82 18 -150 35 -152 37 -2 2 89 2 203 0
226 -4 255 -9 374 -68 185 -92 331 -320 387 -604 15 -76 31 -247 31 -334 l1
-71 23 29 c72 87 191 334 240 496 81 268 75 622 -14 890 -127 381 -377 691
-751 932 -126 82 -121 80 -155 59z"/>
<path class="logo-path" d="M8830 7810 c-72 -25 -133 -88 -154 -160 -21 -72 -20 -122 3 -151 34
-43 137 -23 235 44 l36 24 -47 18 c-63 23 -125 63 -117 76 8 14 55 2 127 -32
68 -32 78 -30 126 28 61 74 65 143 10 162 -49 17 -157 13 -219 -9z"/>
</g>
</svg>
